<?xml version="1.0" encoding="UTF-8"?>
<svg version="1.1" xmlns="http://www.w3.org/2000/svg" width="38" height="35">
<path d="M0 0 C12.54 0 25.08 0 38 0 C38 11.55 38 23.1 38 35 C25.46 35 12.92 35 0 35 C0 23.45 0 11.9 0 0 Z " fill="#C84FCB" transform="translate(0,0)"/>
<path d="M0 0 C0.91007812 0.00902344 1.82015625 0.01804687 2.7578125 0.02734375 C3.45648438 0.03894531 4.15515625 0.05054688 4.875 0.0625 C5.535 1.3825 6.195 2.7025 6.875 4.0625 C7.535 4.0625 8.195 4.0625 8.875 4.0625 C10.63684173 9.14074969 11.35963227 12.71782382 9.875 18.0625 C7.6875 21.0625 7.6875 21.0625 4.875 23.0625 C1.625 22.8125 1.625 22.8125 -1.125 22.0625 C-1.455 22.3925 -1.785 22.7225 -2.125 23.0625 C-4.375 23.5625 -4.375 23.5625 -7.125 23.0625 C-10.12450415 20.53117242 -11.95345358 17.74307342 -12.35546875 13.8046875 C-11.97246987 8.54958653 -10.45786345 5.10233449 -7.125 1.0625 C-4.60024538 -0.19987731 -2.81299534 -0.03606404 0 0 Z " fill="#F9ECF9" transform="translate(20.125,6.9375)"/>
<path d="M0 0 C0.66 0 1.32 0 2 0 C3.125 5.625 3.125 5.625 2 9 C1.34 9 0.68 9 0 9 C0 9.66 0 10.32 0 11 C0.99 11 1.98 11 3 11 C3.125 13.875 3.125 13.875 3 17 C2.34 17.66 1.68 18.32 1 19 C-1.125 18.625 -1.125 18.625 -3 18 C-2.67 17.01 -2.34 16.02 -2 15 C-2.99 14.67 -3.98 14.34 -5 14 C-5 11.03 -5 8.06 -5 5 C-3.68 4.67 -2.36 4.34 -1 4 C-0.67 2.68 -0.34 1.36 0 0 Z " fill="#CC60D1" transform="translate(16,9)"/>
<path d="M0 0 C1.32 0 2.64 0 4 0 C4.33 0.99 4.66 1.98 5 3 C5.66 3 6.32 3 7 3 C6.979375 3.7425 6.95875 4.485 6.9375 5.25 C6.99328688 7.70462279 7.3069904 9.66109261 8 12 C7.01 12.66 6.02 13.32 5 14 C4.27617533 16.05925139 4.27617533 16.05925139 4 18 C2.68 17.34 1.36 16.68 0 16 C0 14.02 0 12.04 0 10 C0.66 9.67 1.32 9.34 2 9 C1.34 8.34 0.68 7.68 0 7 C-0.125 3.375 -0.125 3.375 0 0 Z " fill="#CF55C5" transform="translate(21,10)"/>
<path d="M0 0 C0.66 0 1.32 0 2 0 C2.89674777 2.51089376 3.13172674 3.64535109 2.1875 6.1875 C1 8 1 8 -1 9 C-0.67 6.03 -0.34 3.06 0 0 Z " fill="#EFD2F3" transform="translate(9,14)"/>
<path d="M0 0 C0.66 0 1.32 0 2 0 C2.33 2.64 2.66 5.28 3 8 C2.34 8 1.68 8 1 8 C0.26919734 6.02253397 -0.39421747 4.01927511 -1 2 C-0.67 1.34 -0.34 0.68 0 0 Z " fill="#FCF7FC" transform="translate(28,14)"/>
<path d="M0 0 C0.99 0.33 1.98 0.66 3 1 C2.01 2.32 1.02 3.64 0 5 C-0.99 4.67 -1.98 4.34 -3 4 C-2.67 3.01 -2.34 2.02 -2 1 C-1.34 0.67 -0.68 0.34 0 0 Z " fill="#F7E0F3" transform="translate(28,22)"/>
</svg>
